<svg xmlns="http://www.w3.org/2000/svg" width="256" height="128" fill="none" viewBox="0 0 256 128">
  <g clip-path="url(#a)">
    <rect width="256" height="128" fill="#fff" rx="8"/>
    <mask id="b" fill="#fff">
      <path d="M0 8c0-4.41828 3.58172-8 8-8h240c4.418 0 8 3.58172 8 8v12H0V8Z"/>
    </mask>
    <path fill="#F0F4F9" d="M0 8c0-4.41828 3.58172-8 8-8h240c4.418 0 8 3.58172 8 8v12H0V8Z"/>
    <path fill="#E1E3E1" d="M0 0h256H0Zm256 20.5H0v-1h256v1ZM0 20V0v20ZM256 0v20V0Z" mask="url(#b)"/>
    <path fill="#444746" fill-rule="evenodd" d="M137 6h4c2.207 0 4 1.79333 4 4 0 2.2067-1.793 4-4 4h-4c-2.207 0-4-1.7933-4-4 0-2.20667 1.793-4 4-4Zm0 7h4c1.653 0 3-1.3467 3-3 0-1.65333-1.347-3-3-3h-4c-1.653 0-3 1.34667-3 3 0 1.6533 1.347 3 3 3Zm5.333-3.66667-2 1.99997-2-1.99997h4ZM204 8c0 1.10667-.893 2-2 2s-2-.89333-2-2 .893-2 2-2 2 .89333 2 2Zm-1 0c0-.55333-.447-1-1-1-.553 0-1 .44667-1 1s.447 1 1 1c.553 0 1-.44667 1-1Zm-1 2.6667c1.227 0 2.373.3333 3.353.9133.407.2333.647.68.647 1.1467V14h-8v-1.2733c0-.4667.24-.9134.647-1.1467.98-.58 2.126-.9133 3.353-.9133Zm-3 2.06V13h6v-.28c0-.1133-.053-.2267-.147-.28-.866-.5067-1.853-.7733-2.853-.7733-1 0-1.987.2666-2.853.78-.087.0533-.147.16-.147.28Z" clip-rule="evenodd"/>
    <g clip-path="url(#c)">
      <path fill="#444746" d="M9.1 13.15V12.1h6.3v1.05H9.1Zm0-2.625v-1.05h9.8v1.05H9.1Zm0-2.625V6.85h9.8V7.9H9.1Z"/>
    </g>
    <path fill="#fff" d="M0 20h256v18H0z"/>
    <rect width="74" height="6" x="8" y="26" fill="#E3E3E3" rx="3"/>
    <rect width="28" height="6" x="86" y="26" fill="#E3E3E3" rx="3"/>
    <rect width="52" height="10" x="196" y="24" fill="#E8EAED" rx="5"/>
    <path fill="#757575" fill-rule="evenodd" d="M203.333 27.6663c0 .7378-.595 1.3334-1.333 1.3334s-1.333-.5956-1.333-1.3334c0-.7377.595-1.3333 1.333-1.3333s1.333.5956 1.333 1.3333Zm-.666 0c0-.3688-.298-.6666-.667-.6666-.369 0-.667.2978-.667.6666 0 .3689.298.6667.667.6667.369 0 .667-.2978.667-.6667ZM202 29.4437c.818 0 1.582.2222 2.235.6089.272.1555.432.4533.432.7644v.8489h-5.334v-.8489c0-.3111.16-.6089.431-.7644.654-.3867 1.418-.6089 2.236-.6089Zm-2 1.5555h4v-.1866c0-.0756-.036-.1511-.098-.1867-.578-.3378-1.235-.5155-1.902-.5155-.667 0-1.325.1777-1.902.52-.058.0355-.098.1066-.098.1866v.1822Z" clip-rule="evenodd"/>
    <rect width="52" height="10" x="132" y="24" fill="#FDE29B" rx="5"/>
    <g clip-path="url(#d)">
      <path fill="#757575" d="m177 30.25-2-2h4l-2 2Z"/>
    </g>
    <path fill="#F8FAFD" d="M0 38h256v18H0z"/>
    <rect width="46" height="6" x="8" y="44" fill="#E3E3E3" rx="3"/>
    <rect width="51" height="6" x="58" y="44" fill="#E3E3E3" rx="3"/>
    <rect width="52" height="10" x="132" y="42" fill="#FDE29B" rx="5"/>
    <g clip-path="url(#e)">
      <path fill="#757575" d="m177 48.25-2-2h4l-2 2Z"/>
    </g>
    <rect width="52" height="10" x="196" y="42" fill="#E8EAED" rx="5"/>
    <path fill="#757575" fill-rule="evenodd" d="M203.333 45.6663c0 .7378-.595 1.3334-1.333 1.3334s-1.333-.5956-1.333-1.3334c0-.7377.595-1.3333 1.333-1.3333s1.333.5956 1.333 1.3333Zm-.666 0c0-.3688-.298-.6666-.667-.6666-.369 0-.667.2978-.667.6666 0 .3689.298.6667.667.6667.369 0 .667-.2978.667-.6667ZM202 47.4437c.818 0 1.582.2222 2.235.6089.272.1555.432.4533.432.7644v.8489h-5.334v-.8489c0-.3111.16-.6089.431-.7644.654-.3867 1.418-.6089 2.236-.6089Zm-2 1.5555h4v-.1866c0-.0756-.036-.1511-.098-.1867-.578-.3378-1.235-.5155-1.902-.5155-.667 0-1.325.1777-1.902.52-.058.0355-.098.1066-.098.1866v.1822Z" clip-rule="evenodd"/>
    <path fill="#fff" d="M0 56h256v18H0z"/>
    <rect width="70" height="6" x="8" y="62" fill="#E3E3E3" rx="3"/>
    <rect width="52" height="10" x="132" y="60" fill="#CDEAB6" rx="5"/>
    <g clip-path="url(#f)">
      <path fill="#757575" d="m177 66.25-2-2h4l-2 2Z"/>
    </g>
    <rect width="52" height="10" x="196" y="60" fill="#E8EAED" rx="5"/>
    <path fill="#757575" fill-rule="evenodd" d="M203.333 63.6663c0 .7378-.595 1.3334-1.333 1.3334s-1.333-.5956-1.333-1.3334c0-.7377.595-1.3333 1.333-1.3333s1.333.5956 1.333 1.3333Zm-.666 0c0-.3688-.298-.6666-.667-.6666-.369 0-.667.2978-.667.6666 0 .3689.298.6667.667.6667.369 0 .667-.2978.667-.6667ZM202 65.4437c.818 0 1.582.2222 2.235.6089.272.1555.432.4533.432.7644v.8489h-5.334v-.8489c0-.3111.16-.6089.431-.7644.654-.3867 1.418-.6089 2.236-.6089Zm-2 1.5555h4v-.1866c0-.0756-.036-.1511-.098-.1867-.578-.3378-1.235-.5155-1.902-.5155-.667 0-1.325.1777-1.902.52-.058.0355-.098.1066-.098.1866v.1822Z" clip-rule="evenodd"/>
    <path fill="#F8FAFD" d="M0 74h256v18H0z"/>
    <rect width="54" height="6" x="8" y="80" fill="#E3E3E3" rx="3"/>
    <rect width="32" height="6" x="66" y="80" fill="#E3E3E3" rx="3"/>
    <rect width="52" height="10" x="132" y="78" fill="#CDEAB6" rx="5"/>
    <g clip-path="url(#g)">
      <path fill="#757575" d="m177 84.25-2-2h4l-2 2Z"/>
    </g>
    <rect width="52" height="10" x="196" y="78" fill="#E8EAED" rx="5"/>
    <path fill="#757575" fill-rule="evenodd" d="M203.333 81.6663c0 .7378-.595 1.3334-1.333 1.3334s-1.333-.5956-1.333-1.3334c0-.7377.595-1.3333 1.333-1.3333s1.333.5956 1.333 1.3333Zm-.666 0c0-.3688-.298-.6666-.667-.6666-.369 0-.667.2978-.667.6666 0 .3689.298.6667.667.6667.369 0 .667-.2978.667-.6667ZM202 83.4437c.818 0 1.582.2222 2.235.6089.272.1555.432.4533.432.7644v.8489h-5.334v-.8489c0-.3111.16-.6089.431-.7644.654-.3867 1.418-.6089 2.236-.6089Zm-2 1.5555h4v-.1866c0-.0756-.036-.1511-.098-.1867-.578-.3378-1.235-.5155-1.902-.5155-.667 0-1.325.1777-1.902.52-.058.0355-.098.1066-.098.1866v.1822Z" clip-rule="evenodd"/>
    <path fill="#fff" d="M0 92h256v18H0z"/>
    <rect width="39" height="6" x="8" y="98" fill="#E3E3E3" rx="3"/>
    <rect width="39" height="6" x="51" y="98" fill="#E3E3E3" rx="3"/>
    <rect width="52" height="10" x="132" y="96" fill="#B8DCF3" rx="5"/>
    <g clip-path="url(#h)">
      <path fill="#757575" d="m177 102.25-2-2h4l-2 2Z"/>
    </g>
    <rect width="52" height="10" x="196" y="96" fill="#E8EAED" rx="5"/>
    <path fill="#757575" fill-rule="evenodd" d="M203.333 99.6663c0 .7377-.595 1.3337-1.333 1.3337s-1.333-.596-1.333-1.3337c0-.7377.595-1.3333 1.333-1.3333s1.333.5956 1.333 1.3333Zm-.666 0c0-.3688-.298-.6666-.667-.6666-.369 0-.667.2978-.667.6666 0 .3687.298.6667.667.6667.369 0 .667-.298.667-.6667ZM202 101.444c.818 0 1.582.222 2.235.609.272.155.432.453.432.764v.849h-5.334v-.849c0-.311.16-.609.431-.764.654-.387 1.418-.609 2.236-.609Zm-2 1.555h4v-.186c0-.076-.036-.152-.098-.187-.578-.338-1.235-.516-1.902-.516-.667 0-1.325.178-1.902.52-.058.036-.098.107-.098.187v.182Z" clip-rule="evenodd"/>
    <path fill="#F8FAFD" d="M0 110h256v18H0z"/>
    <rect width="70" height="6" x="8" y="116" fill="#E3E3E3" rx="3"/>
    <rect width="29" height="6" fill="#E3E3E3" rx="3" transform="matrix(-1 0 0 1 111 116)"/>
    <rect width="52" height="10" x="132" y="114" fill="#B8DCF3" rx="5"/>
    <g clip-path="url(#i)">
      <path fill="#757575" d="m177 120.25-2-2h4l-2 2Z"/>
    </g>
    <rect width="52" height="10" x="196" y="114" fill="#E8EAED" rx="5"/>
    <path fill="#757575" fill-rule="evenodd" d="M203.333 117.666c0 .738-.595 1.334-1.333 1.334s-1.333-.596-1.333-1.334c0-.737.595-1.333 1.333-1.333s1.333.596 1.333 1.333Zm-.666 0c0-.369-.298-.666-.667-.666-.369 0-.667.297-.667.666 0 .369.298.667.667.667.369 0 .667-.298.667-.667Zm-.667 1.778c.818 0 1.582.222 2.235.609.272.155.432.453.432.764v.849h-5.334v-.849c0-.311.16-.609.431-.764.654-.387 1.418-.609 2.236-.609Zm-2 1.555h4v-.186c0-.076-.036-.152-.098-.187-.578-.338-1.235-.516-1.902-.516-.667 0-1.325.178-1.902.52-.058.036-.098.107-.098.187v.182Z" clip-rule="evenodd"/>
  </g>
  <defs>
    <clipPath id="a">
      <rect width="256" height="128" fill="#fff" rx="8"/>
    </clipPath>
    <clipPath id="c">
      <path fill="#fff" d="M8 4h12v12H8z"/>
    </clipPath>
    <clipPath id="d">
      <path fill="#fff" d="M174.5 26.25h5v5h-5z"/>
    </clipPath>
    <clipPath id="e">
      <path fill="#fff" d="M174.5 44.25h5v5h-5z"/>
    </clipPath>
    <clipPath id="f">
      <path fill="#fff" d="M174.5 62.25h5v5h-5z"/>
    </clipPath>
    <clipPath id="g">
      <path fill="#fff" d="M174.5 80.25h5v5h-5z"/>
    </clipPath>
    <clipPath id="h">
      <path fill="#fff" d="M174.5 98.25h5v5h-5z"/>
    </clipPath>
    <clipPath id="i">
      <path fill="#fff" d="M174.5 116.25h5v5h-5z"/>
    </clipPath>
  </defs>
</svg>
